<svg xmlns="http://www.w3.org/2000/svg" width="196" height="196" viewBox="0 0 196 196">
  <path fill-rule="evenodd" stroke="#000" stroke-width="9" d="M88.176,57.836 L77.211,70.994 C74.373,66.092 70.245,62.996 63.924,62.996 C57.861,62.996 51.282,67.64 50.25,73.961 C47.67,90.344 87.402,83.507 82.242,116.144 C79.146,135.623 64.827,149.426 44.961,149.426 C31.545,149.426 22.902,141.686 18,130.463 L32.19,118.466 C33.609,125.948 39.285,132.656 47.412,132.656 C55.152,132.656 61.086,126.077 62.247,118.595 C63.795,108.533 55.023,105.695 47.799,102.728 C36.189,97.568 27.933,91.247 30.384,76.154 C32.964,60.029 47.025,47 63.408,47 C72.051,47 83.274,51.257 88.176,57.836 Z M95.2919095,146.846 L110.642909,49.58 L137.732909,49.58 C165.854909,49.58 181.463909,70.607 177.077909,98.342 C172.691909,125.69 149.987909,146.846 122.252909,146.846 L95.2919095,146.846 Z M127.025909,66.092 L116.834909,130.334 L119.930909,130.334 C143.279909,130.334 154.373909,117.434 157.469909,98.213 C160.823909,77.057 151.664909,66.092 130.121909,66.092 L127.025909,66.092 Z"/>
</svg>
