<svg xmlns="http://www.w3.org/2000/svg" xmlns:xlink="http://www.w3.org/1999/xlink" width="618" height="145" viewBox="0 0 618 145">
  <defs>
    <path id="name-a" d="M0.257614344,127.60396 L2.81839537,111.381234 L8.1202941,111.381234 L5.73984977,126.560814 C5.1988397,129.906077 4.7299643,134.618221 9.23838159,134.618221 C13.7467989,134.618221 14.7927517,129.906077 15.3337618,126.560814 L17.7142061,111.381234 L23.0161048,111.381234 L20.4553238,127.60396 C19.409371,134.222545 15.8026372,139.222454 8.51703482,139.222454 C1.23143248,139.222454 -0.788338468,134.222545 0.257614344,127.60396 Z M34.3110304,111.381234 L30.0190172,138.503043 L24.7171184,138.503043 L29.0091317,111.381234 L34.3110304,111.381234 Z M53.6129052,108 L56.9311003,109.25897 L38.0678823,144.330275 L34.7857546,143.071305 L53.6129052,108 Z M59.389528,127.60396 L61.950309,111.381234 L67.2522078,111.381234 L64.8717634,126.560814 C64.3307534,129.906077 63.861878,134.618221 68.3702953,134.618221 C72.8787126,134.618221 73.9246654,129.906077 74.4656754,126.560814 L76.8461198,111.381234 L82.1480185,111.381234 L79.5872375,127.60396 C78.5412847,134.222545 74.9345508,139.222454 67.6489485,139.222454 C60.3633462,139.222454 58.3435752,134.222545 59.389528,127.60396 Z M92.577328,124.150786 L87.2754293,111.381234 L93.5511461,111.381234 L96.5447352,119.798347 L101.846634,111.381234 L108.122351,111.381234 L98.5645062,124.150786 L104.659886,138.503043 L98.4923715,138.503043 L94.5970989,128.575166 L87.8164393,138.503043 L81.6128571,138.503043 L92.577328,124.150786 Z M121.226492,138.503043 L125.518505,111.381234 L133.092646,111.381234 C140.955326,111.381234 145.319474,117.244436 144.093185,124.978109 C142.866895,132.60387 136.519044,138.503043 128.764566,138.503043 L121.226492,138.503043 Z M130.099057,115.985466 L127.249738,133.89881 L128.115354,133.89881 C134.643542,133.89881 137.745333,130.301753 138.610949,124.942138 C139.5487,119.042965 136.987919,115.985466 130.964673,115.985466 L130.099057,115.985466 Z M164.404945,115.985466 L155.640582,115.985466 L154.702831,121.956581 L163.142588,121.956581 L162.421241,126.560814 L153.981484,126.560814 L152.791262,133.89881 L161.555625,133.89881 L160.834278,138.503043 L146.768016,138.503043 L151.06003,111.381234 L165.126292,111.381234 L164.404945,115.985466 Z M185.834792,113.68335 L182.769069,117.352348 C181.975587,115.985466 180.821432,115.122173 179.054133,115.122173 C177.358968,115.122173 175.519534,116.417113 175.230995,118.179671 C174.509648,122.747934 185.618388,120.841493 184.175695,129.942047 C183.310079,135.373603 179.306604,139.222454 173.752234,139.222454 C170.001231,139.222454 167.584719,137.06422 166.21416,133.934781 L170.181568,130.589518 C170.578308,132.675811 172.165271,134.54628 174.437514,134.54628 C176.601554,134.54628 178.260651,132.711781 178.585257,130.625488 C179.018066,127.819784 176.565487,127.028431 174.545716,126.201108 C171.299655,124.762285 168.991345,122.999727 169.676625,118.791171 C170.397972,114.29485 174.329312,110.661822 178.909863,110.661822 C181.326375,110.661822 184.464234,111.848851 185.834792,113.68335 Z M197.418257,111.381234 L193.126244,138.503043 L187.824345,138.503043 L192.116358,111.381234 L197.418257,111.381234 Z M213.834744,124.078845 L225.556629,124.078845 L225.448427,124.762285 C224.222138,132.424017 219.208778,139.222454 210.769021,139.222454 C202.834206,139.222454 198.866799,132.531928 200.057021,125.05005 C201.283311,117.316378 207.52296,110.661822 215.638111,110.661822 C220.254731,110.661822 223.897532,112.999909 225.340225,117.136525 L220.254731,119.654465 C219.569451,117.208466 217.54968,115.337996 214.736428,115.337996 C209.614866,115.337996 206.260603,120.553729 205.539257,125.05005 C204.81791,129.546371 206.585209,134.54628 211.706771,134.54628 C215.024967,134.54628 218.271027,131.668635 218.920239,128.395313 L213.149465,128.395313 L213.834744,124.078845 Z M228.123259,138.503043 L232.559542,110.661822 L236.38268,110.661822 L247.671757,129.618312 L247.743891,129.618312 L250.629278,111.381234 L255.931177,111.381234 L251.567029,139.042602 L247.743891,139.042602 L236.418747,120.086111 L236.346612,120.086111 L233.425158,138.503043 L228.123259,138.503043 Z M275.377321,115.985466 L266.612958,115.985466 L265.675207,121.956581 L274.114964,121.956581 L273.393617,126.560814 L264.95386,126.560814 L263.763638,133.89881 L272.528001,133.89881 L271.806655,138.503043 L257.740393,138.503043 L262.032406,111.381234 L276.098668,111.381234 L275.377321,115.985466 Z M290.098644,127.064402 L295.97762,138.503043 L289.557634,138.503043 L284.688543,127.56799 L284.616408,127.56799 L282.885176,138.503043 L277.583277,138.503043 L281.875291,111.381234 L289.052691,111.381234 C294.426724,111.381234 297.780987,113.755291 296.843236,119.546553 C296.302226,122.999727 293.849647,126.452902 290.098644,127.064402 Z M286.49191,115.697702 L285.193486,123.863021 L285.878765,123.863021 C288.80022,123.863021 291.000327,122.999727 291.541337,119.690435 C292.082347,116.345172 290.026509,115.697702 287.213257,115.697702 L286.49191,115.697702 Z"/>
  </defs>
  <g fill="none" fill-rule="evenodd">
    <path fill="#00DEFF" d="M7.28466797,93.8291016 L7.28466797,66.121582 C11.9692617,72.5200515 17.0346407,75.7192383 22.480957,75.7192383 C24.5376079,75.7192383 26.2133724,75.1765191 27.5083008,74.0910645 C28.8032291,73.0056098 29.4506836,71.6440512 29.4506836,70.0063477 C29.4506836,67.6450077 28.041518,65.3408315 25.2231445,63.09375 L21.3383789,60.065918 C18.7485222,58.1235254 16.5395599,56.1906834 14.7114258,54.267334 C12.8832916,52.3439845 11.3979549,50.3635356 10.2553711,48.3259277 C9.11278726,46.2883199 8.27490501,44.1840929 7.74169922,42.0131836 C7.20849343,39.8422743 6.94189453,37.5571409 6.94189453,35.1577148 C6.94189453,31.044413 7.89403345,26.7407451 9.79833984,22.246582 C10.750493,20.151845 11.8549742,18.2380458 13.1118164,16.505127 C14.3686586,14.7722081 15.8159098,13.2392645 17.4536133,11.90625 C21.9477764,8.09763721 27.3749682,6.19335938 33.7353516,6.19335938 C39.4101846,6.19335938 45.1230181,7.69773886 50.8740234,10.706543 L50.8740234,37.6713867 C48.9316309,34.6625826 46.7226686,32.2917567 44.2470703,30.5588379 C41.771472,28.8259191 39.3339964,27.9594727 36.9345703,27.9594727 C35.1064362,27.9594727 33.6020567,28.4926704 32.4213867,29.559082 C31.2026306,30.5874075 30.5932617,31.8251881 30.5932617,33.2724609 C30.5932617,35.6338009 32.2118979,37.9760626 35.4492188,40.2993164 L39.2197266,43.0986328 C44.2470954,46.716815 47.8461806,50.4301567 50.0170898,54.2387695 C52.2260853,58.0473823 53.3305664,62.5033925 53.3305664,67.6069336 C53.3305664,76.2905708 50.6836202,83.4506554 45.3896484,89.0874023 C40.0956767,94.7241493 33.3926187,97.5424805 25.2802734,97.5424805 C19.6816126,97.5424805 13.6831375,96.3046999 7.28466797,93.8291016 Z M130.084375,96 L105.461816,96 L103.69082,84.8027344 L87.6375976,84.8027344 L85.6952147,96 L61.0726562,96 L82.2674804,7.79296875 L111.403223,7.79296875 L130.084375,96 Z M100.891504,65.8930664 L99.3490233,55.6098633 C99.3109372,55.5717772 99.2347661,55.0576221 99.1205077,54.0673828 C99.0443355,53.229488 98.6444371,49.9160446 97.9208007,44.1269531 C97.8446284,43.479489 97.7494145,42.5939998 97.6351562,41.470459 C97.5208978,40.3469182 97.3685555,38.9282312 97.1781249,37.2143555 L96.4354491,28.8735352 C96.3592769,29.6733438 96.2545416,30.5683544 96.1212401,31.5585938 C95.9879387,32.5488331 95.8451179,33.6342714 95.6927733,34.8149414 C95.4261704,37.1762813 95.2357427,38.8139603 95.1214843,39.7280273 C95.0072259,40.6420944 94.9310548,41.194335 94.8929687,41.3847656 L93.2362304,52.0678711 L90.8368163,65.8930664 L100.891504,65.8930664 Z M200.611133,96 L176.788379,96 L176.788379,60.5229492 L165.419726,60.5229492 L165.419726,96 L141.596972,96 L141.596972,7.79296875 L165.419726,7.79296875 L165.419726,38.9853516 L176.788379,38.9853516 L176.788379,7.79296875 L200.611133,7.79296875 L200.611133,96 Z M241.37373,96 L217.550976,96 L217.550976,7.79296875 L241.37373,7.79296875 L241.37373,96 Z M300.017675,96 L258.313574,96 L258.313574,7.79296875 L282.136328,7.79296875 L282.136328,74.8051758 L300.017675,74.8051758 L300.017675,96 Z M351.493066,96 L351.493066,7.79296875 L372.059472,7.79296875 C383.828086,7.79296875 392.987662,10.95407 399.538476,17.2763672 C408.145941,25.5410569 412.449609,37.1000234 412.449609,51.9536133 C412.449609,66.5786864 408.812438,77.871054 401.537988,85.8310547 C395.329949,92.6103855 386.075159,96 373.773339,96 L351.493066,96 Z M375.31582,74.690918 C383.847112,74.2719706 388.112695,66.9214581 388.112695,52.6391602 C388.112695,45.5932265 387.027256,40.0327352 384.856347,35.9575195 C382.685438,31.8442177 379.75285,29.7875977 376.058496,29.7875977 L375.31582,29.7875977 L375.31582,74.690918 Z M488.51787,96 L463.895312,96 L462.124316,84.8027344 L446.071093,84.8027344 L444.12871,96 L419.506152,96 L440.700976,7.79296875 L469.836718,7.79296875 L488.51787,96 Z M459.324999,65.8930664 L457.782519,55.6098633 C457.744433,55.5717772 457.668262,55.0576221 457.554003,54.0673828 C457.477831,53.229488 457.077933,49.9160446 456.354296,44.1269531 C456.278124,43.479489 456.18291,42.5939998 456.068652,41.470459 C455.954393,40.3469182 455.802051,38.9282312 455.61162,37.2143555 L454.868945,28.8735352 C454.792772,29.6733438 454.688037,30.5683544 454.554736,31.5585938 C454.421434,32.5488331 454.278613,33.6342714 454.126269,34.8149414 C453.859666,37.1762813 453.669238,38.8139603 453.55498,39.7280273 C453.440721,40.6420944 453.36455,41.194335 453.326464,41.3847656 L451.669726,52.0678711 L449.270312,65.8930664 L459.324999,65.8930664 Z M538.363964,96 L514.084179,96 L493.860546,7.79296875 L518.883007,7.79296875 L523.224804,32.9868164 C524.862507,42.6226068 526.176459,53.4008193 527.166698,65.3217773 C527.585646,60.0278056 528.099801,55.0766832 528.709179,50.4682617 C529.318557,45.8598402 530.042183,41.3657446 530.880077,36.9858398 L536.535839,7.79296875 L562.415234,7.79296875 L538.363964,96 Z M573.185155,96 L573.185155,7.79296875 L617.460058,7.79296875 L617.460058,28.5307617 L597.007909,28.5307617 L597.007909,41.3847656 L615.346288,41.3847656 L615.346288,61.3227539 L597.007909,61.3227539 L597.007909,74.8051758 L617.460058,74.8051758 L617.460058,96 L573.185155,96 Z"/>
    <path fill="red" d="M1.28466797,87.8291016 L1.28466797,60.121582 C5.9692617,66.5200515 11.0346407,69.7192383 16.480957,69.7192383 C18.5376079,69.7192383 20.2133724,69.1765191 21.5083008,68.0910645 C22.8032291,67.0056098 23.4506836,65.6440512 23.4506836,64.0063477 C23.4506836,61.6450077 22.041518,59.3408315 19.2231445,57.09375 L15.3383789,54.065918 C12.7485222,52.1235254 10.5395599,50.1906834 8.71142578,48.267334 C6.88329164,46.3439845 5.39795493,44.3635356 4.25537109,42.3259277 C3.11278726,40.2883199 2.27490501,38.1840929 1.74169922,36.0131836 C1.20849343,33.8422743 0.941894531,31.5571409 0.941894531,29.1577148 C0.941894531,25.044413 1.89403345,20.7407451 3.79833984,16.246582 C4.75049304,14.151845 5.85497418,12.2380458 7.11181641,10.505127 C8.36865863,8.77220813 9.81590978,7.23926448 11.4536133,5.90625 C15.9477764,2.09763721 21.3749682,0.193359375 27.7353516,0.193359375 C33.4101846,0.193359375 39.1230181,1.69773886 44.8740234,4.70654297 L44.8740234,31.6713867 C42.9316309,28.6625826 40.7226686,26.2917567 38.2470703,24.5588379 C35.771472,22.8259191 33.3339964,21.9594727 30.9345703,21.9594727 C29.1064362,21.9594727 27.6020567,22.4926704 26.4213867,23.559082 C25.2026306,24.5874075 24.5932617,25.8251881 24.5932617,27.2724609 C24.5932617,29.6338009 26.2118979,31.9760626 29.4492188,34.2993164 L33.2197266,37.0986328 C38.2470954,40.716815 41.8461806,44.4301567 44.0170898,48.2387695 C46.2260853,52.0473823 47.3305664,56.5033925 47.3305664,61.6069336 C47.3305664,70.2905708 44.6836202,77.4506554 39.3896484,83.0874023 C34.0956767,88.7241493 27.3926187,91.5424805 19.2802734,91.5424805 C13.6816126,91.5424805 7.68313746,90.3046999 1.28466797,87.8291016 Z M124.084375,90 L99.4618163,90 L97.6908202,78.8027344 L81.6375976,78.8027344 L79.6952147,90 L55.0726562,90 L76.2674804,1.79296875 L105.403223,1.79296875 L124.084375,90 Z M94.8915038,59.8930664 L93.3490233,49.6098633 C93.3109372,49.5717772 93.2347661,49.0576221 93.1205077,48.0673828 C93.0443355,47.229488 92.6444371,43.9160446 91.9208007,38.1269531 C91.8446284,37.479489 91.7494145,36.5939998 91.6351562,35.470459 C91.5208978,34.3469182 91.3685555,32.9282312 91.1781249,31.2143555 L90.4354491,22.8735352 C90.3592769,23.6733438 90.2545416,24.5683544 90.1212401,25.5585938 C89.9879387,26.5488331 89.8451179,27.6342714 89.6927733,28.8149414 C89.4261704,31.1762813 89.2357427,32.8139603 89.1214843,33.7280273 C89.0072259,34.6420944 88.9310548,35.194335 88.8929687,35.3847656 L87.2362304,46.0678711 L84.8368163,59.8930664 L94.8915038,59.8930664 Z M194.611133,90 L170.788379,90 L170.788379,54.5229492 L159.419726,54.5229492 L159.419726,90 L135.596972,90 L135.596972,1.79296875 L159.419726,1.79296875 L159.419726,32.9853516 L170.788379,32.9853516 L170.788379,1.79296875 L194.611133,1.79296875 L194.611133,90 Z M235.37373,90 L211.550976,90 L211.550976,1.79296875 L235.37373,1.79296875 L235.37373,90 Z M294.017675,90 L252.313574,90 L252.313574,1.79296875 L276.136328,1.79296875 L276.136328,68.8051758 L294.017675,68.8051758 L294.017675,90 Z M345.493066,90 L345.493066,1.79296875 L366.059472,1.79296875 C377.828086,1.79296875 386.987662,4.95406995 393.538476,11.2763672 C402.145941,19.5410569 406.449609,31.1000234 406.449609,45.9536133 C406.449609,60.5786864 402.812438,71.871054 395.537988,79.8310547 C389.329949,86.6103855 380.075159,90 367.773339,90 L345.493066,90 Z M369.31582,68.690918 C377.847112,68.2719706 382.112695,60.9214581 382.112695,46.6391602 C382.112695,39.5932265 381.027256,34.0327352 378.856347,29.9575195 C376.685438,25.8442177 373.75285,23.7875977 370.058496,23.7875977 L369.31582,23.7875977 L369.31582,68.690918 Z M482.51787,90 L457.895312,90 L456.124316,78.8027344 L440.071093,78.8027344 L438.12871,90 L413.506152,90 L434.700976,1.79296875 L463.836718,1.79296875 L482.51787,90 Z M453.324999,59.8930664 L451.782519,49.6098633 C451.744433,49.5717772 451.668262,49.0576221 451.554003,48.0673828 C451.477831,47.229488 451.077933,43.9160446 450.354296,38.1269531 C450.278124,37.479489 450.18291,36.5939998 450.068652,35.470459 C449.954393,34.3469182 449.802051,32.9282312 449.61162,31.2143555 L448.868945,22.8735352 C448.792772,23.6733438 448.688037,24.5683544 448.554736,25.5585938 C448.421434,26.5488331 448.278613,27.6342714 448.126269,28.8149414 C447.859666,31.1762813 447.669238,32.8139603 447.55498,33.7280273 C447.440721,34.6420944 447.36455,35.194335 447.326464,35.3847656 L445.669726,46.0678711 L443.270312,59.8930664 L453.324999,59.8930664 Z M532.363964,90 L508.084179,90 L487.860546,1.79296875 L512.883007,1.79296875 L517.224804,26.9868164 C518.862507,36.6226068 520.176459,47.4008193 521.166698,59.3217773 C521.585646,54.0278056 522.099801,49.0766832 522.709179,44.4682617 C523.318557,39.8598402 524.042183,35.3657446 524.880077,30.9858398 L530.535839,1.79296875 L556.415234,1.79296875 L532.363964,90 Z M567.185155,90 L567.185155,1.79296875 L611.460058,1.79296875 L611.460058,22.5307617 L591.007909,22.5307617 L591.007909,35.3847656 L609.346288,35.3847656 L609.346288,55.3227539 L591.007909,55.3227539 L591.007909,68.8051758 L611.460058,68.8051758 L611.460058,90 L567.185155,90 Z"/>
    <path fill="#000" d="M4.28466797,90.8291016 L4.28466797,63.121582 C8.9692617,69.5200515 14.0346407,72.7192383 19.480957,72.7192383 C21.5376079,72.7192383 23.2133724,72.1765191 24.5083008,71.0910645 C25.8032291,70.0056098 26.4506836,68.6440512 26.4506836,67.0063477 C26.4506836,64.6450077 25.041518,62.3408315 22.2231445,60.09375 L18.3383789,57.065918 C15.7485222,55.1235254 13.5395599,53.1906834 11.7114258,51.267334 C9.88329164,49.3439845 8.39795493,47.3635356 7.25537109,45.3259277 C6.11278726,43.2883199 5.27490501,41.1840929 4.74169922,39.0131836 C4.20849343,36.8422743 3.94189453,34.5571409 3.94189453,32.1577148 C3.94189453,28.044413 4.89403345,23.7407451 6.79833984,19.246582 C7.75049304,17.151845 8.85497418,15.2380458 10.1118164,13.505127 C11.3686586,11.7722081 12.8159098,10.2392645 14.4536133,8.90625 C18.9477764,5.09763721 24.3749682,3.19335938 30.7353516,3.19335938 C36.4101846,3.19335938 42.1230181,4.69773886 47.8740234,7.70654297 L47.8740234,34.6713867 C45.9316309,31.6625826 43.7226686,29.2917567 41.2470703,27.5588379 C38.771472,25.8259191 36.3339964,24.9594727 33.9345703,24.9594727 C32.1064362,24.9594727 30.6020567,25.4926704 29.4213867,26.559082 C28.2026306,27.5874075 27.5932617,28.8251881 27.5932617,30.2724609 C27.5932617,32.6338009 29.2118979,34.9760626 32.4492188,37.2993164 L36.2197266,40.0986328 C41.2470954,43.716815 44.8461806,47.4301567 47.0170898,51.2387695 C49.2260853,55.0473823 50.3305664,59.5033925 50.3305664,64.6069336 C50.3305664,73.2905708 47.6836202,80.4506554 42.3896484,86.0874023 C37.0956767,91.7241493 30.3926187,94.5424805 22.2802734,94.5424805 C16.6816126,94.5424805 10.6831375,93.3046999 4.28466797,90.8291016 Z M127.084375,93 L102.461816,93 L100.69082,81.8027344 L84.6375976,81.8027344 L82.6952147,93 L58.0726562,93 L79.2674804,4.79296875 L108.403223,4.79296875 L127.084375,93 Z M97.8915038,62.8930664 L96.3490233,52.6098633 C96.3109372,52.5717772 96.2347661,52.0576221 96.1205077,51.0673828 C96.0443355,50.229488 95.6444371,46.9160446 94.9208007,41.1269531 C94.8446284,40.479489 94.7494145,39.5939998 94.6351562,38.470459 C94.5208978,37.3469182 94.3685555,35.9282312 94.1781249,34.2143555 L93.4354491,25.8735352 C93.3592769,26.6733438 93.2545416,27.5683544 93.1212401,28.5585938 C92.9879387,29.5488331 92.8451179,30.6342714 92.6927733,31.8149414 C92.4261704,34.1762813 92.2357427,35.8139603 92.1214843,36.7280273 C92.0072259,37.6420944 91.9310548,38.194335 91.8929687,38.3847656 L90.2362304,49.0678711 L87.8368163,62.8930664 L97.8915038,62.8930664 Z M197.611133,93 L173.788379,93 L173.788379,57.5229492 L162.419726,57.5229492 L162.419726,93 L138.596972,93 L138.596972,4.79296875 L162.419726,4.79296875 L162.419726,35.9853516 L173.788379,35.9853516 L173.788379,4.79296875 L197.611133,4.79296875 L197.611133,93 Z M238.37373,93 L214.550976,93 L214.550976,4.79296875 L238.37373,4.79296875 L238.37373,93 Z M297.017675,93 L255.313574,93 L255.313574,4.79296875 L279.136328,4.79296875 L279.136328,71.8051758 L297.017675,71.8051758 L297.017675,93 Z M348.493066,93 L348.493066,4.79296875 L369.059472,4.79296875 C380.828086,4.79296875 389.987662,7.95406995 396.538476,14.2763672 C405.145941,22.5410569 409.449609,34.1000234 409.449609,48.9536133 C409.449609,63.5786864 405.812438,74.871054 398.537988,82.8310547 C392.329949,89.6103855 383.075159,93 370.773339,93 L348.493066,93 Z M372.31582,71.690918 C380.847112,71.2719706 385.112695,63.9214581 385.112695,49.6391602 C385.112695,42.5932265 384.027256,37.0327352 381.856347,32.9575195 C379.685438,28.8442177 376.75285,26.7875977 373.058496,26.7875977 L372.31582,26.7875977 L372.31582,71.690918 Z M485.51787,93 L460.895312,93 L459.124316,81.8027344 L443.071093,81.8027344 L441.12871,93 L416.506152,93 L437.700976,4.79296875 L466.836718,4.79296875 L485.51787,93 Z M456.324999,62.8930664 L454.782519,52.6098633 C454.744433,52.5717772 454.668262,52.0576221 454.554003,51.0673828 C454.477831,50.229488 454.077933,46.9160446 453.354296,41.1269531 C453.278124,40.479489 453.18291,39.5939998 453.068652,38.470459 C452.954393,37.3469182 452.802051,35.9282312 452.61162,34.2143555 L451.868945,25.8735352 C451.792772,26.6733438 451.688037,27.5683544 451.554736,28.5585938 C451.421434,29.5488331 451.278613,30.6342714 451.126269,31.8149414 C450.859666,34.1762813 450.669238,35.8139603 450.55498,36.7280273 C450.440721,37.6420944 450.36455,38.194335 450.326464,38.3847656 L448.669726,49.0678711 L446.270312,62.8930664 L456.324999,62.8930664 Z M535.363964,93 L511.084179,93 L490.860546,4.79296875 L515.883007,4.79296875 L520.224804,29.9868164 C521.862507,39.6226068 523.176459,50.4008193 524.166698,62.3217773 C524.585646,57.0278056 525.099801,52.0766832 525.709179,47.4682617 C526.318557,42.8598402 527.042183,38.3657446 527.880077,33.9858398 L533.535839,4.79296875 L559.415234,4.79296875 L535.363964,93 Z M570.185155,93 L570.185155,4.79296875 L614.460058,4.79296875 L614.460058,25.5307617 L594.007909,25.5307617 L594.007909,38.3847656 L612.346288,38.3847656 L612.346288,58.3227539 L594.007909,58.3227539 L594.007909,71.8051758 L614.460058,71.8051758 L614.460058,93 L570.185155,93 Z"/>
    <use fill="#000" opacity=".54" xlink:href="#name-a"/>
  </g>
</svg>
